<svg id="visual" viewBox="0 0 900 600" width="900" height="600" xmlns="http://www.w3.org/2000/svg" xmlns:xlink="http://www.w3.org/1999/xlink" version="1.1"><path d="M0 235L30 211C60 187 120 139 180 129C240 119 300 147 360 165C420 183 480 191 540 188C600 185 660 171 720 153C780 135 840 113 870 102L900 91L900 0L870 0C840 0 780 0 720 0C660 0 600 0 540 0C480 0 420 0 360 0C300 0 240 0 180 0C120 0 60 0 30 0L0 0Z" fill="#a196e6"></path><path d="M0 415L30 397C60 379 120 343 180 333C240 323 300 339 360 364C420 389 480 423 540 413C600 403 660 349 720 331C780 313 840 331 870 340L900 349L900 89L870 100C840 111 780 133 720 151C660 169 600 183 540 186C480 189 420 181 360 163C300 145 240 117 180 127C120 137 60 185 30 209L0 233Z" fill="#8577dd"></path><path d="M0 469L30 468C60 467 120 465 180 470C240 475 300 487 360 501C420 515 480 531 540 525C600 519 660 491 720 493C780 495 840 527 870 543L900 559L900 347L870 338C840 329 780 311 720 329C660 347 600 401 540 411C480 421 420 387 360 362C300 337 240 321 180 331C120 341 60 377 30 395L0 413Z" fill="#6c5dc6"></path><path d="M0 601L30 601C60 601 120 601 180 601C240 601 300 601 360 601C420 601 480 601 540 601C600 601 660 601 720 601C780 601 840 601 870 601L900 601L900 557L870 541C840 525 780 493 720 491C660 489 600 517 540 523C480 529 420 513 360 499C300 485 240 473 180 468C120 463 60 465 30 466L0 467Z" fill="#5648a2"></path></svg>